<svg id="visual" viewBox="0 0 1920 950" width="1920" height="950" xmlns="http://www.w3.org/2000/svg" xmlns:xlink="http://www.w3.org/1999/xlink" version="1.1"><path d="M0 902L53.3 877C106.7 852 213.3 802 320 758.7C426.7 715.3 533.3 678.7 640 633.8C746.7 589 853.3 536 960 542.2C1066.7 548.3 1173.3 613.7 1280 589.3C1386.7 565 1493.3 451 1600 430.7C1706.7 410.3 1813.3 483.7 1866.7 520.3L1920 557L1920 951L1866.7 951C1813.3 951 1706.7 951 1600 951C1493.3 951 1386.7 951 1280 951C1173.3 951 1066.7 951 960 951C853.3 951 746.7 951 640 951C533.3 951 426.7 951 320 951C213.3 951 106.7 951 53.3 951L0 951Z" fill="#6aa987"></path><path d="M0 530L53.3 584C106.7 638 213.3 746 320 741.2C426.7 736.3 533.3 618.7 640 627.3C746.7 636 853.3 771 960 830C1066.7 889 1173.3 872 1280 852.8C1386.7 833.7 1493.3 812.3 1600 750C1706.7 687.7 1813.3 584.3 1866.7 532.7L1920 481L1920 951L1866.7 951C1813.3 951 1706.7 951 1600 951C1493.3 951 1386.7 951 1280 951C1173.3 951 1066.7 951 960 951C853.3 951 746.7 951 640 951C533.3 951 426.7 951 320 951C213.3 951 106.7 951 53.3 951L0 951Z" fill="#a6d0ac"></path><path d="M0 702L53.3 725.3C106.7 748.7 213.3 795.3 320 812C426.7 828.7 533.3 815.3 640 819.7C746.7 824 853.3 846 960 867.5C1066.7 889 1173.3 910 1280 919.3C1386.7 928.7 1493.3 926.3 1600 914.8C1706.7 903.3 1813.3 882.7 1866.7 872.3L1920 862L1920 951L1866.7 951C1813.3 951 1706.7 951 1600 951C1493.3 951 1386.7 951 1280 951C1173.3 951 1066.7 951 960 951C853.3 951 746.7 951 640 951C533.3 951 426.7 951 320 951C213.3 951 106.7 951 53.3 951L0 951Z" fill="#dff8d6"></path></svg>