<svg id="visual" viewBox="0 0 1920 996" width="1920" height="996" xmlns="http://www.w3.org/2000/svg" xmlns:xlink="http://www.w3.org/1999/xlink" version="1.1"><g><g transform="translate(1718 826)"><path d="M113.9 -92.3C145.8 -50.8 168.7 -3.5 161.7 40.9C154.7 85.3 117.9 126.9 75.5 141.4C33 156 -15.1 143.6 -61.1 122.9C-107.1 102.2 -151 73.4 -160.8 35.3C-170.7 -2.8 -146.4 -50.1 -113.9 -91.7C-81.4 -133.3 -40.7 -169.2 0.1 -169.3C41 -169.4 82 -133.7 113.9 -92.3Z" stroke="#BFE4E0" fill="none" stroke-width="20"></path></g><g transform="translate(6 740)"><path d="M77.9 -59.6C97.6 -37.3 108.2 -5.1 100.8 21.3C93.4 47.7 68.1 68.3 40.9 79.3C13.7 90.2 -15.5 91.4 -38.1 80.1C-60.7 68.8 -76.7 45 -85.6 16.5C-94.5 -12 -96.3 -45.1 -80.8 -66.4C-65.4 -87.7 -32.7 -97.3 -1.8 -95.9C29 -94.4 58.1 -81.9 77.9 -59.6Z" stroke="#BFE4E0" fill="none" stroke-width="20"></path></g><g transform="translate(705 773)"><path d="M100.5 -82.2C128.1 -45.5 147 -3.8 141.6 37.3C136.3 78.5 106.6 119.1 65.1 141.5C23.6 164 -29.7 168.2 -65.5 146.9C-101.3 125.5 -119.6 78.5 -122.8 36.1C-126.1 -6.3 -114.4 -44.1 -91.4 -79.8C-68.5 -115.5 -34.2 -149.2 1.1 -150C36.4 -150.9 72.8 -119 100.5 -82.2Z" stroke="#BFE4E0" fill="none" stroke-width="20"></path></g><g transform="translate(565 166)"><path d="M66.2 -48.7C84 -30.6 95.1 -3.2 89.7 20.5C84.3 44.1 62.4 64 38.7 72.4C15 80.8 -10.4 77.6 -34.5 67.6C-58.6 57.6 -81.4 40.7 -91.6 15.3C-101.9 -10.1 -99.7 -43.9 -82.3 -61.9C-65 -79.9 -32.5 -82 -4.1 -78.7C24.3 -75.5 48.5 -66.8 66.2 -48.7Z" stroke="#BFE4E0" fill="none" stroke-width="20"></path></g><g transform="translate(1462 411)"><path d="M72.5 -56.6C88 -38.4 90.5 -8.6 84.9 20.8C79.3 50.1 65.6 79 41.4 93.6C17.1 108.3 -17.8 108.8 -42.4 94.5C-67.1 80.2 -81.6 51 -87.8 20.9C-94 -9.2 -91.9 -40.4 -75.9 -58.8C-59.9 -77.1 -29.9 -82.6 -0.7 -82C28.5 -81.4 57 -74.8 72.5 -56.6Z" stroke="#BFE4E0" fill="none" stroke-width="20"></path></g><g transform="translate(1868 197)"><path d="M85.3 -68.7C106.9 -41 118.2 -5.7 110.4 24C102.7 53.8 76 78 45.1 92.5C14.2 106.9 -20.9 111.6 -47 98.6C-73.2 85.6 -90.4 55.1 -98.4 21.8C-106.5 -11.4 -105.5 -47.4 -87.6 -74.2C-69.6 -101.1 -34.8 -119 -1.5 -117.8C31.9 -116.6 63.7 -96.4 85.3 -68.7Z" stroke="#BFE4E0" fill="none" stroke-width="20"></path></g></g></svg>