<svg id="visual" viewBox="0 0 1920 950" width="1920" height="950" xmlns="http://www.w3.org/2000/svg" xmlns:xlink="http://www.w3.org/1999/xlink" version="1.1"><rect x="0" y="0" width="1920" height="950" fill="#009281"></rect><defs><linearGradient id="grad1_0" x1="50.5%" y1="0%" x2="100%" y2="100%"><stop offset="9.578947368421051%" stop-color="#6aa987" stop-opacity="1"></stop><stop offset="90.42105263157896%" stop-color="#6aa987" stop-opacity="1"></stop></linearGradient></defs><defs><linearGradient id="grad1_1" x1="50.5%" y1="0%" x2="100%" y2="100%"><stop offset="9.578947368421051%" stop-color="#6aa987" stop-opacity="1"></stop><stop offset="90.42105263157896%" stop-color="#53a184" stop-opacity="1"></stop></linearGradient></defs><defs><linearGradient id="grad1_2" x1="50.5%" y1="0%" x2="100%" y2="100%"><stop offset="9.578947368421051%" stop-color="#389a82" stop-opacity="1"></stop><stop offset="90.42105263157896%" stop-color="#53a184" stop-opacity="1"></stop></linearGradient></defs><defs><linearGradient id="grad1_3" x1="50.5%" y1="0%" x2="100%" y2="100%"><stop offset="9.578947368421051%" stop-color="#389a82" stop-opacity="1"></stop><stop offset="90.42105263157896%" stop-color="#009281" stop-opacity="1"></stop></linearGradient></defs><defs><linearGradient id="grad2_0" x1="0%" y1="0%" x2="49.5%" y2="100%"><stop offset="9.578947368421051%" stop-color="#6aa987" stop-opacity="1"></stop><stop offset="90.42105263157896%" stop-color="#6aa987" stop-opacity="1"></stop></linearGradient></defs><defs><linearGradient id="grad2_1" x1="0%" y1="0%" x2="49.5%" y2="100%"><stop offset="9.578947368421051%" stop-color="#53a184" stop-opacity="1"></stop><stop offset="90.42105263157896%" stop-color="#6aa987" stop-opacity="1"></stop></linearGradient></defs><defs><linearGradient id="grad2_2" x1="0%" y1="0%" x2="49.5%" y2="100%"><stop offset="9.578947368421051%" stop-color="#53a184" stop-opacity="1"></stop><stop offset="90.42105263157896%" stop-color="#389a82" stop-opacity="1"></stop></linearGradient></defs><defs><linearGradient id="grad2_3" x1="0%" y1="0%" x2="49.5%" y2="100%"><stop offset="9.578947368421051%" stop-color="#009281" stop-opacity="1"></stop><stop offset="90.42105263157896%" stop-color="#389a82" stop-opacity="1"></stop></linearGradient></defs><g transform="translate(1920, 0)"><path d="M0 950C-150.4 964.6 -300.8 979.2 -363.5 877.7C-426.3 776.1 -401.5 558.4 -454.7 454.7C-507.8 350.9 -638.9 361 -734.5 304.2C-830 247.4 -890 123.7 -950 0L0 0Z" fill="#259681"></path><path d="M0 712.5C-112.8 723.5 -225.6 734.4 -272.7 658.3C-319.8 582.1 -301.1 418.8 -341 341C-380.9 263.2 -479.2 270.8 -550.9 228.2C-622.5 185.6 -667.5 92.8 -712.5 0L0 0Z" fill="#479e83"></path><path d="M0 475C-75.2 482.3 -150.4 489.6 -181.8 438.8C-213.2 388.1 -200.8 279.2 -227.3 227.3C-253.9 175.4 -319.5 180.5 -367.2 152.1C-415 123.7 -445 61.9 -475 0L0 0Z" fill="#5fa585"></path><path d="M0 237.5C-37.6 241.2 -75.2 244.8 -90.9 219.4C-106.6 194 -100.4 139.6 -113.7 113.7C-127 87.7 -159.7 90.3 -183.6 76.1C-207.5 61.9 -222.5 30.9 -237.5 0L0 0Z" fill="#6aa987"></path></g><g transform="translate(0, 950)"><path d="M0 -950C149.2 -964.1 298.3 -978.2 363.5 -877.7C428.8 -777.2 410.1 -562 454.7 -454.7C499.3 -347.4 607.2 -347.9 700.3 -290.1C793.4 -232.3 871.7 -116.1 950 0L0 0Z" fill="#259681"></path><path d="M0 -712.5C111.9 -723.1 223.7 -733.7 272.7 -658.3C321.6 -582.9 307.5 -421.5 341 -341C374.5 -260.5 455.4 -260.9 525.2 -217.6C595.1 -174.2 653.8 -87.1 712.5 0L0 0Z" fill="#479e83"></path><path d="M0 -475C74.6 -482.1 149.2 -489.1 181.8 -438.8C214.4 -388.6 205 -281 227.3 -227.3C249.6 -173.7 303.6 -173.9 350.2 -145C396.7 -116.1 435.9 -58.1 475 0L0 0Z" fill="#5fa585"></path><path d="M0 -237.5C37.3 -241 74.6 -244.6 90.9 -219.4C107.2 -194.3 102.5 -140.5 113.7 -113.7C124.8 -86.8 151.8 -87 175.1 -72.5C198.4 -58.1 217.9 -29 237.5 0L0 0Z" fill="#6aa987"></path></g></svg>