<svg id="visual" viewBox="0 0 1920 950" width="1920" height="950" xmlns="http://www.w3.org/2000/svg" xmlns:xlink="http://www.w3.org/1999/xlink" version="1.1"><rect x="0" y="0" width="1920" height="950" fill="#fbfff5"></rect><defs><linearGradient id="grad1_0" x1="50.5%" y1="0%" x2="100%" y2="100%"><stop offset="9.578947368421051%" stop-color="#cbebd8" stop-opacity="1"></stop><stop offset="90.42105263157896%" stop-color="#cbebd8" stop-opacity="1"></stop></linearGradient></defs><defs><linearGradient id="grad1_1" x1="50.5%" y1="0%" x2="100%" y2="100%"><stop offset="9.578947368421051%" stop-color="#cbebd8" stop-opacity="1"></stop><stop offset="90.42105263157896%" stop-color="#e5f5e4" stop-opacity="1"></stop></linearGradient></defs><defs><linearGradient id="grad1_2" x1="50.5%" y1="0%" x2="100%" y2="100%"><stop offset="9.578947368421051%" stop-color="#fbfff5" stop-opacity="1"></stop><stop offset="90.42105263157896%" stop-color="#e5f5e4" stop-opacity="1"></stop></linearGradient></defs><defs><linearGradient id="grad2_0" x1="0%" y1="0%" x2="49.5%" y2="100%"><stop offset="9.578947368421051%" stop-color="#cbebd8" stop-opacity="1"></stop><stop offset="90.42105263157896%" stop-color="#cbebd8" stop-opacity="1"></stop></linearGradient></defs><defs><linearGradient id="grad2_1" x1="0%" y1="0%" x2="49.5%" y2="100%"><stop offset="9.578947368421051%" stop-color="#e5f5e4" stop-opacity="1"></stop><stop offset="90.42105263157896%" stop-color="#cbebd8" stop-opacity="1"></stop></linearGradient></defs><defs><linearGradient id="grad2_2" x1="0%" y1="0%" x2="49.5%" y2="100%"><stop offset="9.578947368421051%" stop-color="#e5f5e4" stop-opacity="1"></stop><stop offset="90.42105263157896%" stop-color="#fbfff5" stop-opacity="1"></stop></linearGradient></defs><g transform="translate(1920, 0)"><path d="M0 617.5C-127.8 612.8 -255.6 608.1 -308.7 534.8C-361.9 461.5 -340.3 319.6 -379.3 219C-418.3 118.4 -517.9 59.2 -617.5 0L0 0Z" fill="#f1faec"></path><path d="M0 411.7C-85.2 408.5 -170.4 405.4 -205.8 356.5C-241.2 307.6 -226.9 213 -252.9 146C-278.9 79 -345.3 39.5 -411.7 0L0 0Z" fill="#d9f0dd"></path><path d="M0 205.8C-42.6 204.3 -85.2 202.7 -102.9 178.3C-120.6 153.8 -113.4 106.5 -126.4 73C-139.4 39.5 -172.6 19.7 -205.8 0L0 0Z" fill="#cbebd8"></path></g><g transform="translate(0, 950)"><path d="M0 -617.5C66.2 -529.9 132.3 -442.3 232 -401.8C331.7 -361.3 464.9 -367.9 534.8 -308.8C604.6 -249.6 611.1 -124.8 617.5 0L0 0Z" fill="#f1faec"></path><path d="M0 -411.7C44.1 -353.3 88.2 -294.9 154.7 -267.9C221.1 -240.9 310 -245.3 356.5 -205.8C403.1 -166.4 407.4 -83.2 411.7 0L0 0Z" fill="#d9f0dd"></path><path d="M0 -205.8C22.1 -176.6 44.1 -147.4 77.3 -133.9C110.6 -120.4 155 -122.6 178.3 -102.9C201.5 -83.2 203.7 -41.6 205.8 0L0 0Z" fill="#cbebd8"></path></g></svg>