<svg id="visual" viewBox="0 0 1920 500" width="1920" height="500" xmlns="http://www.w3.org/2000/svg" xmlns:xlink="http://www.w3.org/1999/xlink" version="1.1"><path d="M0 76L32 75.2C64 74.3 128 72.7 192 68.5C256 64.3 320 57.7 384 59.3C448 61 512 71 576 71C640 71 704 61 768 57.7C832 54.3 896 57.7 960 59.3C1024 61 1088 61 1152 58.5C1216 56 1280 51 1344 51.8C1408 52.7 1472 59.3 1536 63.5C1600 67.7 1664 69.3 1728 66.8C1792 64.3 1856 57.7 1888 54.3L1920 51L1920 0L1888 0C1856 0 1792 0 1728 0C1664 0 1600 0 1536 0C1472 0 1408 0 1344 0C1280 0 1216 0 1152 0C1088 0 1024 0 960 0C896 0 832 0 768 0C704 0 640 0 576 0C512 0 448 0 384 0C320 0 256 0 192 0C128 0 64 0 32 0L0 0Z" fill="#d4eafe"></path><path d="M0 151L32 150.2C64 149.3 128 147.7 192 143.5C256 139.3 320 132.7 384 136C448 139.3 512 152.7 576 151.8C640 151 704 136 768 134.3C832 132.7 896 144.3 960 152.7C1024 161 1088 166 1152 160.2C1216 154.3 1280 137.7 1344 131C1408 124.3 1472 127.7 1536 136C1600 144.3 1664 157.7 1728 158.5C1792 159.3 1856 147.7 1888 141.8L1920 136L1920 49L1888 52.3C1856 55.7 1792 62.3 1728 64.8C1664 67.3 1600 65.7 1536 61.5C1472 57.3 1408 50.7 1344 49.8C1280 49 1216 54 1152 56.5C1088 59 1024 59 960 57.3C896 55.7 832 52.3 768 55.7C704 59 640 69 576 69C512 69 448 59 384 57.3C320 55.7 256 62.3 192 66.5C128 70.7 64 72.3 32 73.2L0 74Z" fill="#b7dbfd"></path><path d="M0 186L32 190.2C64 194.3 128 202.7 192 198.5C256 194.3 320 177.7 384 176.8C448 176 512 191 576 195.2C640 199.3 704 192.7 768 193.5C832 194.3 896 202.7 960 206.8C1024 211 1088 211 1152 205.2C1216 199.3 1280 187.7 1344 181C1408 174.3 1472 172.7 1536 180.2C1600 187.7 1664 204.3 1728 206C1792 207.7 1856 194.3 1888 187.7L1920 181L1920 134L1888 139.8C1856 145.7 1792 157.3 1728 156.5C1664 155.7 1600 142.3 1536 134C1472 125.7 1408 122.3 1344 129C1280 135.7 1216 152.3 1152 158.2C1088 164 1024 159 960 150.7C896 142.3 832 130.7 768 132.3C704 134 640 149 576 149.8C512 150.7 448 137.3 384 134C320 130.7 256 137.3 192 141.5C128 145.7 64 147.3 32 148.2L0 149Z" fill="#99ccfc"></path><path d="M0 291L32 302.7C64 314.3 128 337.7 192 339.3C256 341 320 321 384 321C448 321 512 341 576 343.5C640 346 704 331 768 322.7C832 314.3 896 312.7 960 317.7C1024 322.7 1088 334.3 1152 329.3C1216 324.3 1280 302.7 1344 302.7C1408 302.7 1472 324.3 1536 341C1600 357.7 1664 369.3 1728 364.3C1792 359.3 1856 337.7 1888 326.8L1920 316L1920 179L1888 185.7C1856 192.3 1792 205.7 1728 204C1664 202.3 1600 185.7 1536 178.2C1472 170.7 1408 172.3 1344 179C1280 185.7 1216 197.3 1152 203.2C1088 209 1024 209 960 204.8C896 200.7 832 192.3 768 191.5C704 190.7 640 197.3 576 193.2C512 189 448 174 384 174.8C320 175.7 256 192.3 192 196.5C128 200.7 64 192.3 32 188.2L0 184Z" fill="#78bcfa"></path><path d="M0 456L32 457.7C64 459.3 128 462.7 192 462.7C256 462.7 320 459.3 384 455.2C448 451 512 446 576 447.7C640 449.3 704 457.7 768 461C832 464.3 896 462.7 960 462.7C1024 462.7 1088 464.3 1152 461.8C1216 459.3 1280 452.7 1344 448.5C1408 444.3 1472 442.7 1536 446C1600 449.3 1664 457.7 1728 461.8C1792 466 1856 466 1888 466L1920 466L1920 314L1888 324.8C1856 335.7 1792 357.3 1728 362.3C1664 367.3 1600 355.7 1536 339C1472 322.3 1408 300.7 1344 300.7C1280 300.7 1216 322.3 1152 327.3C1088 332.3 1024 320.7 960 315.7C896 310.7 832 312.3 768 320.7C704 329 640 344 576 341.5C512 339 448 319 384 319C320 319 256 339 192 337.3C128 335.7 64 312.3 32 300.7L0 289Z" fill="#52adf9"></path><path d="M0 501L32 501C64 501 128 501 192 501C256 501 320 501 384 501C448 501 512 501 576 501C640 501 704 501 768 501C832 501 896 501 960 501C1024 501 1088 501 1152 501C1216 501 1280 501 1344 501C1408 501 1472 501 1536 501C1600 501 1664 501 1728 501C1792 501 1856 501 1888 501L1920 501L1920 464L1888 464C1856 464 1792 464 1728 459.8C1664 455.7 1600 447.3 1536 444C1472 440.7 1408 442.3 1344 446.5C1280 450.7 1216 457.3 1152 459.8C1088 462.3 1024 460.7 960 460.7C896 460.7 832 462.3 768 459C704 455.7 640 447.3 576 445.7C512 444 448 449 384 453.2C320 457.3 256 460.7 192 460.7C128 460.7 64 457.3 32 455.7L0 454Z" fill="#009ef7"></path></svg>